<svg width="32" height="32" viewBox="0 0 32 32" fill="none" xmlns="http://www.w3.org/2000/svg">
<g clip-path="url(#clip0_13_39)">
<path d="M26 5H6C5.44772 5 5 5.44772 5 6V26C5 26.5523 5.44772 27 6 27H26C26.5523 27 27 26.5523 27 26V6C27 5.44772 26.5523 5 26 5Z" stroke="#F6F6F7" stroke-width="3" stroke-linecap="round" stroke-linejoin="round"/>
<path d="M22 3V6.5" stroke="#F6F6F7" stroke-width="3" stroke-linecap="round" stroke-linejoin="round"/>
<path d="M10 3V6.5" stroke="#F6F6F7" stroke-width="3" stroke-linecap="round" stroke-linejoin="round"/>
<path d="M5 11H27" stroke="#F6F6F7" stroke-width="3" stroke-linecap="round" stroke-linejoin="round"/>
<path d="M10.5 16.5L12.5 15.5V22.5" stroke="#F6F6F7" stroke-width="3" stroke-linecap="round" stroke-linejoin="round"/>
<path d="M17.2675 16.5001C17.4043 16.2644 17.5879 16.0593 17.8069 15.8971C18.0259 15.735 18.2757 15.6193 18.541 15.5572C18.8063 15.4951 19.0815 15.4878 19.3497 15.5359C19.6179 15.5839 19.8735 15.6863 20.1007 15.8367C20.328 15.987 20.5221 16.1823 20.6711 16.4104C20.8202 16.6384 20.9211 16.8946 20.9676 17.1631C21.0141 17.4316 21.0053 17.7067 20.9416 17.9717C20.878 18.2366 20.7609 18.4858 20.5975 18.7038L17 22.5001H21" stroke="#F6F6F7" stroke-width="3" stroke-linecap="round" stroke-linejoin="round"/>
</g>
<defs>
<clipPath id="clip0_13_39">
<rect width="32" height="32" fill="white"/>
</clipPath>
</defs>
</svg>
