<svg width="32" height="32" viewBox="0 0 32 32" fill="none" xmlns="http://www.w3.org/2000/svg">
<g clip-path="url(#clip0_23_2936)">
<path d="M6 26H2.5C2.23478 26 1.98043 25.8946 1.79289 25.7071C1.60536 25.5196 1.5 25.2652 1.5 25V20C1.5 19.7348 1.60536 19.4804 1.79289 19.2929C1.98043 19.1054 2.23478 19 2.5 19H6" stroke="#F6F6F7" stroke-width="3" stroke-linecap="round" stroke-linejoin="round"/>
<path d="M25.5 13.5C27.433 13.5 29 11.933 29 10C29 8.067 27.433 6.5 25.5 6.5C23.567 6.5 22 8.067 22 10C22 11.933 23.567 13.5 25.5 13.5Z" stroke="#F6F6F7" stroke-width="3" stroke-linecap="round" stroke-linejoin="round"/>
<path d="M14 20H18L26.375 18.0738C26.6829 17.9894 27.0061 17.9771 27.3195 18.038C27.6329 18.0989 27.9281 18.2312 28.182 18.4247C28.436 18.6181 28.6419 18.8676 28.7838 19.1536C28.9256 19.4396 28.9996 19.7545 29 20.0738C29.0002 20.4592 28.8929 20.8371 28.6902 21.165C28.4875 21.4929 28.1974 21.7578 27.8525 21.93L23 24L15 26H6V19L9.125 15.875C9.40432 15.5967 9.73577 15.3761 10.1004 15.226C10.465 15.0758 10.8557 14.999 11.25 15H17.5C18.163 15 18.7989 15.2634 19.2678 15.7322C19.7366 16.2011 20 16.837 20 17.5C20 18.1631 19.7366 18.7989 19.2678 19.2678C18.7989 19.7366 18.163 20 17.5 20H14Z" stroke="#F6F6F7" stroke-width="3" stroke-linecap="round" stroke-linejoin="round"/>
<path d="M22.0575 10.635C21.4003 10.9614 20.6571 11.073 19.933 10.954C19.209 10.835 18.5406 10.4915 18.0224 9.97193C17.5043 9.45237 17.1625 8.78309 17.0454 8.05869C16.9284 7.3343 17.042 6.59144 17.3701 5.93512C17.6983 5.2788 18.2244 4.74222 18.8742 4.40123C19.5239 4.06024 20.2644 3.93209 20.9909 4.03489C21.7175 4.13769 22.3934 4.46624 22.923 4.9741C23.4526 5.48197 23.8093 6.14345 23.9425 6.86505" stroke="#F6F6F7" stroke-width="3" stroke-linecap="round" stroke-linejoin="round"/>
</g>
<defs>
<clipPath id="clip0_23_2936">
<rect width="32" height="32" fill="white"/>
</clipPath>
</defs>
</svg>
