<svg width="840" height="200" viewBox="0 0 840 200" fill="none" xmlns="http://www.w3.org/2000/svg">
<g filter="url(#filter0_d_1_149)">
<path d="M80 90C86.6274 90 92 84.6274 92 78C92 71.3726 86.6274 66 80 66C73.3726 66 68 71.3726 68 78C68 84.6274 73.3726 90 80 90Z" fill="white"/>
<path d="M78 160C84.6274 160 90 154.627 90 148C90 141.373 84.6274 136 78 136C71.3726 136 66 141.373 66 148C66 154.627 71.3726 160 78 160Z" fill="white"/>
<path d="M68 58C70.2091 58 72 56.2091 72 54C72 51.7909 70.2091 50 68 50C65.7909 50 64 51.7909 64 54C64 56.2091 65.7909 58 68 58Z" fill="white"/>
<path d="M63 114C64.6569 114 66 112.657 66 111C66 109.343 64.6569 108 63 108C61.3431 108 60 109.343 60 111C60 112.657 61.3431 114 63 114Z" fill="white"/>
<path d="M140 117C141.657 117 143 115.657 143 114C143 112.343 141.657 111 140 111C138.343 111 137 112.343 137 114C137 115.657 138.343 117 140 117Z" fill="white"/>
<path d="M111 162C112.657 162 114 160.657 114 159C114 157.343 112.657 156 111 156C109.343 156 108 157.343 108 159C108 160.657 109.343 162 111 162Z" fill="white"/>
<path d="M104 100C106.209 100 108 98.2091 108 96C108 93.7909 106.209 92 104 92C101.791 92 100 93.7909 100 96C100 98.2091 101.791 100 104 100Z" fill="white"/>
<path d="M89 122C92.866 122 96 118.866 96 115C96 111.134 92.866 108 89 108C85.134 108 82 111.134 82 115C82 118.866 85.134 122 89 122Z" fill="white"/>
<path d="M132 54C135.314 54 138 51.3137 138 48C138 44.6863 135.314 42 132 42C128.686 42 126 44.6863 126 48C126 51.3137 128.686 54 132 54Z" fill="white"/>
<path d="M129.5 99C138.613 99 146 91.6127 146 82.5C146 73.3873 138.613 66 129.5 66C120.387 66 113 73.3873 113 82.5C113 91.6127 120.387 99 129.5 99Z" fill="white"/>
<path d="M101 62C105.971 62 110 57.9706 110 53C110 48.0294 105.971 44 101 44C96.0294 44 92 48.0294 92 53C92 57.9706 96.0294 62 101 62Z" fill="white"/>
<path d="M123 148C131.284 148 138 141.284 138 133C138 124.716 131.284 118 123 118C114.716 118 108 124.716 108 133C108 141.284 114.716 148 123 148Z" fill="white"/>
<path d="M37.26 185C33.6067 185.082 29.9612 184.627 26.44 183.65C23.9313 182.942 21.6655 181.558 19.89 179.65C18.0111 177.483 16.6774 174.897 16 172.11C15.0126 168.039 14.5555 163.858 14.64 159.67V126.67C14.64 120.53 13.69 116.06 11.74 113.02C9.89765 110.294 7.15938 108.299 4 107.38V90.71C9.33 88.92 14.67 84.36 14.67 73.3V40.3C14.67 30.92 16.4 24.3 19.8 20.51C23.2 16.72 29.19 15 37.78 15H49V31.46H48.62C46.4039 31.4347 44.1887 31.5617 41.99 31.84C40.0015 32.0578 38.1292 32.8857 36.63 34.21C35.2254 35.6175 34.3044 37.435 34 39.4C33.6347 41.5501 33.4707 43.7295 33.51 45.91V75.05C33.5391 77.9616 33.3687 80.8717 33 83.76C32.7618 85.6165 32.246 87.4267 31.47 89.13C30.7514 90.637 29.7538 91.9943 28.53 93.13C26.8156 94.7027 24.9983 96.1592 23.09 97.49L19.36 100.13L23.17 102.65C25.0388 103.841 26.7665 105.24 28.32 106.82C29.5675 108.13 30.6002 109.628 31.38 111.26C32.2002 113.027 32.7465 114.909 33 116.84C33.3528 119.545 33.5198 122.272 33.5 125V154.14C33.4649 156.264 33.629 158.387 33.99 160.48C34.2812 162.392 35.146 164.17 36.47 165.58C37.8835 166.929 39.6783 167.808 41.61 168.1C43.8707 168.468 46.1599 168.632 48.45 168.59H49V185H37.26Z" fill="white"/>
<path d="M170.74 185C174.393 185.082 178.039 184.627 181.56 183.65C184.069 182.942 186.335 181.558 188.11 179.65C189.975 177.485 191.298 174.908 191.97 172.13C192.957 168.059 193.415 163.878 193.33 159.69V126.69C193.33 120.55 194.28 116.08 196.23 113.04C198.075 110.297 200.825 108.29 204 107.37V90.71C198.67 88.92 193.33 84.36 193.33 73.3V40.3C193.33 30.92 191.6 24.3 188.2 20.51C184.8 16.72 178.81 14.97 170.2 14.97H159V31.46H159.38C161.596 31.4347 163.811 31.5617 166.01 31.84C167.998 32.0578 169.871 32.8857 171.37 34.21C172.775 35.6175 173.696 37.435 174 39.4C174.365 41.5501 174.529 43.7295 174.49 45.91V75.05C174.451 77.9609 174.611 80.871 174.97 83.76C175.208 85.6165 175.724 87.4267 176.5 89.13C177.219 90.637 178.216 91.9943 179.44 93.13C181.154 94.7027 182.972 96.1592 184.88 97.49L188.61 100.13L184.8 102.65C182.931 103.841 181.204 105.24 179.65 106.82C178.403 108.13 177.37 109.628 176.59 111.26C175.766 113.039 175.22 114.935 174.97 116.88C174.626 119.569 174.466 122.279 174.49 124.99V154.13C174.525 156.254 174.361 158.377 174 160.47C173.761 162.408 172.881 164.21 171.5 165.59C170.12 166.971 168.318 167.851 166.38 168.09C164.119 168.458 161.83 168.622 159.54 168.58H159V185H170.74Z" fill="white"/>
<path fill-rule="evenodd" clip-rule="evenodd" d="M477.596 154.15C475.221 157.844 472.325 160.745 468.909 162.851C465.417 164.982 461.304 166.047 456.57 166.047C451.657 166.047 447.248 165.071 443.342 163.118C439.495 161.165 436.181 158.265 433.4 154.418C430.677 150.571 428.606 145.807 427.185 140.125C425.765 134.384 425.055 127.726 425.055 120.151V112.605C425.055 104.734 425.765 97.9279 427.185 92.1872C428.606 86.3873 430.677 81.5639 433.4 77.7171C436.181 73.8702 439.525 71.0294 443.431 69.1948C447.337 67.3601 451.746 66.4428 456.658 66.4428C461.452 66.4428 465.595 67.5376 469.087 69.7274C471.963 71.4827 474.479 73.8607 476.632 76.8614V27.9149H497.317V164.272L478.585 164.36L477.596 154.15ZM476.632 93.6496C476.073 92.5178 475.451 91.4681 474.768 90.5005C473.348 88.4883 471.602 86.92 469.531 85.7955C467.518 84.6118 465.151 84.02 462.429 84.02C459.41 84.02 456.836 84.6118 454.705 85.7955C452.575 86.92 450.858 88.6658 449.556 91.0331C448.254 93.3413 447.278 96.3004 446.627 99.9105C446.035 103.461 445.739 107.693 445.739 112.605V120.151C445.739 125.063 446.035 129.295 446.627 132.846C447.219 136.397 448.166 139.326 449.468 141.634C450.77 143.883 452.486 145.57 454.617 146.694C456.747 147.76 459.322 148.292 462.34 148.292C466.128 148.292 469.205 147.345 471.572 145.452C473.685 143.802 475.372 141.659 476.632 139.023V93.6496Z" fill="white"/>
<path fill-rule="evenodd" clip-rule="evenodd" d="M533.231 163.295C538.084 165.13 543.618 166.047 549.832 166.047C555.336 166.047 560.13 165.337 564.213 163.917C568.356 162.496 571.877 160.691 574.777 158.501C577.677 156.252 579.985 153.974 581.702 151.666L572.558 138.971C570.013 141.871 566.995 144.238 563.503 146.073C560.07 147.848 555.957 148.736 551.164 148.736C547.908 148.736 545.038 148.263 542.552 147.316C540.126 146.31 538.055 144.771 536.338 142.7C534.622 140.569 533.32 137.847 532.432 134.532C531.629 131.321 531.215 127.415 531.191 122.814H582.767V112.428C582.767 104.971 582.057 98.3718 580.636 92.6311C579.275 86.8904 577.145 82.067 574.245 78.1609C571.404 74.2549 567.764 71.3253 563.326 69.3723C558.887 67.4193 553.649 66.4428 547.613 66.4428C542.286 66.4428 537.344 67.3601 532.787 69.1948C528.289 71.0294 524.383 73.8406 521.069 77.6283C517.755 81.416 515.151 86.2689 513.257 92.1872C511.422 98.0463 510.505 105.03 510.505 113.138V122.37C510.505 129.531 511.393 135.834 513.168 141.279C514.944 146.665 517.518 151.222 520.892 154.95C524.265 158.62 528.378 161.401 533.231 163.295ZM531.346 107.19C531.514 104.22 531.817 101.586 532.255 99.2891C532.965 95.5014 533.971 92.4831 535.273 90.2342C536.634 87.9852 538.35 86.3577 540.422 85.3516C542.493 84.3455 544.861 83.8425 547.524 83.8425C551.193 83.8425 554.063 84.7006 556.135 86.4169C558.265 88.074 559.804 90.5005 560.751 93.6964C561.698 96.833 562.231 100.591 562.349 104.971V107.19H531.346Z" fill="white"/>
<path fill-rule="evenodd" clip-rule="evenodd" d="M339.871 120.151V112.428C339.871 104.971 340.788 98.3718 342.623 92.6311C344.458 86.8904 347.062 82.0966 350.435 78.2497C353.868 74.3436 357.892 71.4141 362.508 69.4611C367.124 67.4489 372.214 66.4428 377.777 66.4428C383.459 66.4428 388.608 67.4489 393.224 69.4611C397.899 71.4141 401.924 74.3436 405.297 78.2497C408.73 82.0966 411.363 86.8904 413.198 92.6311C415.033 98.3718 415.95 104.971 415.95 112.428V120.151C415.95 127.608 415.033 134.207 413.198 139.948C411.363 145.688 408.73 150.512 405.297 154.418C401.924 158.265 397.929 161.165 393.313 163.118C388.697 165.071 383.577 166.047 377.955 166.047C372.392 166.047 367.272 165.071 362.597 163.118C357.981 161.165 353.956 158.265 350.524 154.418C347.091 150.512 344.458 145.688 342.623 139.948C340.788 134.207 339.871 127.608 339.871 120.151ZM360.555 112.428V120.151C360.555 124.945 360.969 129.147 361.798 132.757C362.627 136.308 363.81 139.267 365.349 141.634C366.888 144.002 368.722 145.777 370.853 146.961C372.984 148.144 375.351 148.736 377.955 148.736C380.855 148.736 383.37 148.144 385.501 146.961C387.69 145.777 389.496 144.002 390.916 141.634C392.395 139.267 393.49 136.308 394.201 132.757C394.911 129.147 395.266 124.945 395.266 120.151V112.428C395.266 107.693 394.852 103.55 394.023 99.9993C393.194 96.3892 392.011 93.4005 390.472 91.0331C388.933 88.6067 387.069 86.8016 384.879 85.6179C382.749 84.4343 380.381 83.8425 377.777 83.8425C375.232 83.8425 372.895 84.4343 370.764 85.6179C368.693 86.8016 366.888 88.6067 365.349 91.0331C363.81 93.4005 362.627 96.3892 361.798 99.9993C360.969 103.55 360.555 107.693 360.555 112.428Z" fill="white"/>
<path d="M331.033 122.104H309.549C309.194 128.614 308.277 133.763 306.797 137.551C305.318 141.338 303.039 144.031 299.962 145.629C296.943 147.227 292.889 148.026 287.8 148.026C283.538 148.026 279.988 147.227 277.147 145.629C274.306 143.972 272.027 141.575 270.311 138.438C268.595 135.243 267.352 131.366 266.583 126.809C265.813 122.252 265.429 117.014 265.429 111.096V88.0148C265.429 81.8598 265.872 76.5038 266.76 71.9468C267.707 67.3305 269.098 63.5132 270.933 60.4949C272.826 57.4174 275.223 55.1093 278.123 53.5705C281.082 52.0318 284.604 51.2624 288.687 51.2624C293.6 51.2624 297.506 52.1206 300.406 53.8369C303.365 55.5532 305.554 58.3643 306.975 62.2704C308.454 66.1173 309.342 71.2662 309.638 77.7171H331.121C330.589 68.1887 328.665 60.1102 325.351 53.4818C322.037 46.8533 317.332 41.8228 311.236 38.3902C305.14 34.9576 297.624 33.2413 288.687 33.2413C281.704 33.2413 275.43 34.4841 269.867 36.9698C264.363 39.3963 259.688 42.9769 255.841 47.7115C251.994 52.4461 249.035 58.2164 246.964 65.0224C244.951 71.8284 243.945 79.5517 243.945 88.1924V111.096C243.945 119.737 244.922 127.46 246.875 134.266C248.887 141.072 251.787 146.842 255.575 151.577C259.362 156.252 263.949 159.833 269.335 162.319C274.779 164.804 280.934 166.047 287.8 166.047C296.855 166.047 304.519 164.331 310.792 160.898C317.125 157.466 321.978 152.494 325.351 145.984C328.724 139.415 330.618 131.455 331.033 122.104Z" fill="white"/>
<path fill-rule="evenodd" clip-rule="evenodd" d="M770.307 27.9149H780.249V81.5214C781.253 79.6607 782.378 77.9487 783.623 76.3855C786.167 73.1896 789.186 70.7335 792.678 69.0172C796.169 67.3009 800.253 66.4428 804.928 66.4428C809.9 66.4428 814.309 67.3009 818.156 69.0172C822.003 70.7335 825.258 73.3967 827.921 77.0069C830.584 80.617 832.596 85.322 833.957 91.1219C835.319 96.8626 835.999 103.757 835.999 111.806V120.772C835.999 128.525 835.319 135.243 833.957 140.924C832.596 146.606 830.584 151.311 827.921 155.039C825.258 158.768 822.003 161.549 818.156 163.384C814.368 165.219 810.018 166.136 805.106 166.136C800.312 166.136 796.11 165.278 792.5 163.561C788.89 161.845 785.812 159.448 783.268 156.371C782.078 154.898 780.997 153.289 780.024 151.545L779.539 164.272H770.307V27.9149ZM780.249 92.9766V140.784C780.844 142.188 781.525 143.566 782.291 144.919C784.303 148.411 787.026 151.251 790.458 153.441C793.891 155.572 798.093 156.637 803.064 156.637C807.089 156.637 810.521 155.927 813.362 154.507C816.262 153.027 818.659 150.808 820.553 147.848C822.446 144.889 823.837 141.19 824.725 136.752C825.613 132.254 826.057 126.927 826.057 120.772V111.806C826.057 105.71 825.613 100.414 824.725 95.9157C823.896 91.3587 822.535 87.6006 820.641 84.6414C818.807 81.6823 816.41 79.4925 813.451 78.0722C810.551 76.5926 807.029 75.8528 802.887 75.8528C798.803 75.8528 795.282 76.6222 792.322 78.1609C789.423 79.6405 786.996 81.6231 785.043 84.1088C783.149 86.5945 781.64 89.3169 780.516 92.276C780.425 92.5099 780.336 92.7434 780.249 92.9766Z" fill="white"/>
<path fill-rule="evenodd" clip-rule="evenodd" d="M733.416 157.88C735.639 155.708 737.501 153.401 739.002 150.958C739.075 152.714 739.195 154.518 739.363 156.371C739.659 159.567 740.133 162.2 740.784 164.272H751.259V163.118C750.49 160.869 749.868 157.969 749.395 154.418C748.981 150.867 748.774 147.405 748.774 144.031V94.9392C748.774 88.0148 747.501 82.4517 744.956 78.2497C742.471 74.0477 739.008 71.0294 734.57 69.1948C730.131 67.3601 725.041 66.4428 719.301 66.4428C714.625 66.4428 710.364 67.2121 706.517 68.7509C702.729 70.2896 699.474 72.3906 696.752 75.0538C694.03 77.6579 691.929 80.6762 690.449 84.1088C688.969 87.4822 688.23 91.0036 688.23 94.6729L698.084 94.7617C698.084 91.0331 698.942 87.7485 700.658 84.9077C702.434 82.0078 704.89 79.7589 708.026 78.1609C711.222 76.5038 714.862 75.6753 718.945 75.6753C723.266 75.6753 726.906 76.3263 729.865 77.6283C732.824 78.9303 735.073 81.0017 736.611 83.8425C738.15 86.624 738.92 90.2638 738.92 94.7617V108.167H722.674C716.637 108.167 711.341 108.936 706.783 110.475C702.226 112.013 698.439 114.174 695.42 116.955C692.402 119.678 690.124 122.903 688.585 126.632C687.105 130.36 686.365 134.444 686.365 138.882C686.365 144.86 687.431 149.89 689.561 153.974C691.751 158.057 694.799 161.105 698.705 163.118C702.67 165.13 707.287 166.136 712.554 166.136C716.933 166.136 720.869 165.367 724.361 163.828C727.852 162.289 730.871 160.306 733.416 157.88ZM735.635 145.807C737.009 143.917 738.104 141.968 738.92 139.96V116.6H724.183C719.567 116.6 715.513 117.103 712.021 118.109C708.529 119.115 705.6 120.565 703.232 122.459C700.924 124.353 699.178 126.602 697.995 129.206C696.811 131.81 696.219 134.769 696.219 138.083C696.219 142.344 696.9 145.836 698.261 148.559C699.622 151.222 701.605 153.204 704.209 154.507C706.872 155.749 710.038 156.371 713.708 156.371C718.561 156.371 722.822 155.424 726.491 153.53C730.22 151.577 733.268 149.003 735.635 145.807Z" fill="white"/>
<path d="M676.551 164.272V154.773H623.464V35.0168H613.166V164.272H676.551Z" fill="white"/>
</g>
<defs>
<filter id="filter0_d_1_149" x="0" y="0" width="841" height="208" filterUnits="userSpaceOnUse" color-interpolation-filters="sRGB">
<feFlood flood-opacity="0" result="BackgroundImageFix"/>
<feColorMatrix in="SourceAlpha" type="matrix" values="0 0 0 0 0 0 0 0 0 0 0 0 0 0 0 0 0 0 127 0" result="hardAlpha"/>
<feOffset dy="4"/>
<feGaussianBlur stdDeviation="2"/>
<feComposite in2="hardAlpha" operator="out"/>
<feColorMatrix type="matrix" values="0 0 0 0 0 0 0 0 0 0 0 0 0 0 0 0 0 0 0.25 0"/>
<feBlend mode="normal" in2="BackgroundImageFix" result="effect1_dropShadow_1_149"/>
<feBlend mode="normal" in="SourceGraphic" in2="effect1_dropShadow_1_149" result="shape"/>
</filter>
</defs>
</svg>
