<svg width="629" height="206" viewBox="0 0 629 206" fill="none" xmlns="http://www.w3.org/2000/svg">
<g filter="url(#filter0_d_1_94)">
<path d="M204 99.9999L174.54 49.3199H119.74L92.33 2.16992H33.46L4 52.8499L31.4 99.9999L4 147.15L33.46 197.83H92.33L119.74 150.68H174.54L204 99.9999ZM37.53 9.23992H88.26L113.61 52.8499L88.26 96.4599H37.53L12.18 52.8499L37.53 9.23992ZM88.26 190.76H37.53L12.18 147.15L37.53 103.54H88.26L113.61 147.17L88.26 190.76ZM119.74 143.61L94.39 99.9999L119.74 56.3899H170.47L195.82 99.9999L170.47 143.61H119.74Z" fill="white"/>
<path d="M251.41 169.63H269.26C272.2 169.63 273.67 168.16 273.67 165.22V101.59C273.67 90.95 278.5 85.63 288.16 85.63H295.72C300.2 85.63 303.35 86.61 305.17 88.57C307.13 90.39 308.11 93.54 308.11 98.02V165.22C308.11 168.16 309.58 169.63 312.52 169.63H330.16C333.24 169.63 334.78 168.16 334.78 165.22V96.76C334.78 73.94 323.79 62.53 301.81 62.53H295.09C284.45 62.53 277.59 66.31 274.51 73.87H273.67V26.41C273.67 23.47 272.2 22 269.26 22H251.41C248.47 22 247 23.47 247 26.41V165.22C247 168.16 248.47 169.63 251.41 169.63Z" fill="white"/>
<path fill-rule="evenodd" clip-rule="evenodd" d="M429.581 169.63H383.171C372.111 169.63 363.571 166.69 357.551 160.81C351.531 154.93 348.521 146.46 348.521 135.4V96.7598C348.521 85.6998 351.531 77.2298 357.551 71.3498C363.571 65.4698 372.111 62.5298 383.171 62.5298H399.761C410.821 62.5298 419.361 65.4698 425.381 71.3498C431.401 77.2298 434.411 85.6998 434.411 96.7598V123.43C434.411 126.37 432.941 127.84 430.001 127.84H377.291C375.611 127.84 374.771 128.61 374.771 130.15V134.77C374.771 139.11 375.681 142.26 377.501 144.22C379.462 146.04 382.681 146.95 387.161 146.95H429.581C432.521 146.95 433.991 148.49 433.991 151.57V165.43C433.991 166.97 433.641 168.09 432.941 168.79C432.382 169.35 431.261 169.63 429.581 169.63ZM377.291 109.99H405.851C407.391 109.99 408.161 109.22 408.161 107.68V97.5998C408.161 93.1198 407.251 89.9698 405.431 88.1498C403.611 86.3298 400.461 85.4198 395.981 85.4198H387.161C382.681 85.4198 379.531 86.3298 377.711 88.1498C375.891 89.9698 374.981 93.1198 374.981 97.5998V107.68C374.981 109.22 375.751 109.99 377.291 109.99Z" fill="white"/>
<path d="M444.101 169.63H465.311C468.531 169.63 470.631 168.16 471.611 165.22L484.841 133.09H485.681L498.911 165.22C500.171 168.16 502.271 169.63 505.211 169.63H526.841C528.241 169.63 529.151 169.21 529.571 168.37C530.131 167.53 530.061 166.48 529.361 165.22L502.271 115.03L527.471 66.9398C529.291 63.9998 528.381 62.5298 524.741 62.5298H503.741C500.381 62.5298 498.211 63.9998 497.231 66.9398L485.681 98.8598H484.841L471.611 66.9398C470.631 63.9998 468.461 62.5298 465.101 62.5298H443.681C440.601 62.5298 439.761 63.9998 441.161 66.9398L467.621 115.03L441.161 165.22C439.481 168.16 440.461 169.63 444.101 169.63Z" fill="white"/>
<path fill-rule="evenodd" clip-rule="evenodd" d="M571.343 169.63H576.383C580.723 169.63 584.853 168.72 588.773 166.9C592.693 164.94 595.423 162.07 596.963 158.29H597.803V165.22C597.803 168.16 599.273 169.63 602.213 169.63H619.853C622.933 169.63 624.473 168.16 624.473 165.22V66.9398C624.473 63.9998 622.933 62.5298 619.853 62.5298H571.343C560.283 62.5298 551.743 65.4698 545.723 71.3498C539.703 77.2298 536.693 85.6998 536.693 96.7598V135.4C536.693 146.46 539.703 154.93 545.723 160.81C551.743 166.69 560.283 169.63 571.343 169.63ZM597.803 87.9398V130.57C597.803 141.21 592.973 146.53 583.313 146.53H575.543C571.063 146.53 567.913 145.62 566.093 143.8C564.273 141.84 563.363 138.62 563.363 134.14V98.0198C563.363 93.5398 564.273 90.3898 566.093 88.5698C567.913 86.6098 571.063 85.6298 575.543 85.6298H595.283C596.963 85.6298 597.803 86.3998 597.803 87.9398Z" fill="white"/>
</g>
<defs>
<filter id="filter0_d_1_94" x="0" y="0" width="629" height="208" filterUnits="userSpaceOnUse" color-interpolation-filters="sRGB">
<feFlood flood-opacity="0" result="BackgroundImageFix"/>
<feColorMatrix in="SourceAlpha" type="matrix" values="0 0 0 0 0 0 0 0 0 0 0 0 0 0 0 0 0 0 127 0" result="hardAlpha"/>
<feOffset dy="4"/>
<feGaussianBlur stdDeviation="2"/>
<feComposite in2="hardAlpha" operator="out"/>
<feColorMatrix type="matrix" values="0 0 0 0 0 0 0 0 0 0 0 0 0 0 0 0 0 0 0.25 0"/>
<feBlend mode="normal" in2="BackgroundImageFix" result="effect1_dropShadow_1_94"/>
<feBlend mode="normal" in="SourceGraphic" in2="effect1_dropShadow_1_94" result="shape"/>
</filter>
</defs>
</svg>
