<svg width="803" height="208" viewBox="0 0 803 208" fill="none" xmlns="http://www.w3.org/2000/svg">
<g clip-path="url(#clip0_1_84)" filter="url(#filter0_d_1_84)">
<mask id="mask0_1_84" style="mask-type:luminance" maskUnits="userSpaceOnUse" x="0" y="0" width="799" height="200">
<path d="M799 0H0V200H799V0Z" fill="white"/>
</mask>
<g mask="url(#mask0_1_84)">
<path fill-rule="evenodd" clip-rule="evenodd" d="M115.295 1L153.528 46.326L162.446 130.083L94.9624 201L16.4463 129.85L55.9808 29.2575L115.295 1ZM59.4094 36.98L90.9446 70.2938L58.6944 117.07L24.8947 124.8L59.4094 36.98ZM26.3158 130.663L86.2524 184.977L58.7638 123.243L26.3158 130.663ZM65.3463 123.235L95.7255 191.461L152.845 131.436L65.3463 123.235ZM155.477 121.423L148.068 51.8489L100.376 71.0065L155.477 121.423ZM95.5829 66.4327L145.647 46.3224L113.694 8.44175L63.3789 32.4123L95.5829 66.4327ZM95.323 74.5485L150.648 125.17L65.8982 117.227L95.323 74.5485Z" fill="white"/>
<path d="M402.024 158.18C385.084 158.18 370.784 152.68 359.344 141.46C347.904 130.24 342.184 116.16 342.184 99.4402C342.184 82.7202 347.904 68.8602 359.344 57.6402C370.784 46.4202 385.084 40.7002 402.024 40.7002C416.324 40.7002 428.644 44.8802 439.424 53.2402C450.204 61.3802 457.024 72.1602 459.884 85.1402H439.864C433.924 69.5202 419.624 58.9602 402.024 58.9602C390.364 58.9602 380.904 62.9202 373.204 70.6202C365.504 78.3202 361.764 87.7802 361.764 99.4402C361.764 111.1 365.504 120.78 373.204 128.48C380.904 136.18 390.364 139.92 402.024 139.92C419.624 139.92 433.924 129.36 439.864 113.74H459.884C457.024 126.72 450.204 137.5 439.424 145.86C428.644 154 416.324 158.18 402.024 158.18Z" fill="white"/>
<path d="M646.73 52.3602C639.03 44.6602 628.91 40.7002 616.37 40.7002C597.67 40.7002 584.03 48.4002 575.89 64.0202C569.51 49.2802 555.43 40.7002 537.61 40.7002C521.33 40.7002 509.01 46.8602 500.87 59.4002V43.3402H481.95V155.54H500.87V88.8802C500.87 71.0602 513.19 58.9602 531.67 58.9602C549.27 58.9602 560.71 70.6202 560.71 88.4402V155.54H579.63V88.8802C579.63 71.0602 591.95 58.9602 610.43 58.9602C628.03 58.9602 639.47 70.6202 639.47 88.4402V155.54H658.39V83.1602C658.39 70.1802 654.43 60.0602 646.73 52.3602Z" fill="white"/>
<path fill-rule="evenodd" clip-rule="evenodd" d="M798.236 106.7V106.698C798.438 104.091 798.625 101.672 798.625 99.4402C798.625 82.7202 792.905 68.8602 781.465 57.6402C770.245 46.4202 755.945 40.7002 739.005 40.7002C722.065 40.7002 707.765 46.4202 696.325 57.6402C685.105 68.8602 679.385 82.7202 679.385 99.4402C679.385 116.16 685.105 130.24 696.325 141.46C707.765 152.68 722.065 158.18 739.005 158.18C766.285 158.18 788.285 142.78 796.425 119.68H775.525C769.585 132.22 755.725 140.8 739.005 140.8C728.885 140.8 720.085 137.72 712.825 131.56C705.565 125.4 701.165 117.26 699.625 107.36H798.185L798.236 106.7ZM778.385 90.4202H699.845C703.585 71.0602 718.985 58.0802 739.005 58.0802C759.025 58.0802 774.865 71.2802 778.385 90.4202Z" fill="white"/>
<path fill-rule="evenodd" clip-rule="evenodd" d="M325.84 43.3398H240.48V61.5999H306.92V83.5999H273.48C261.82 83.5999 252.14 87.1199 244.44 94.3799C236.74 101.42 233 110.22 233 120.78C233 131.56 236.74 140.36 244.44 147.62C252.14 154.66 261.82 158.18 273.48 158.18C288.66 158.18 301.86 151.58 308.9 141.02V155.54H325.84V43.3398ZM306.92 118.8C306.92 132 294.38 141.02 275.9 141.02C262.48 141.02 252.58 132.44 252.58 120.78C252.58 109.34 262.48 100.76 275.9 100.76H306.92V118.8Z" fill="white"/>
</g>
</g>
<defs>
<filter id="filter0_d_1_84" x="-4" y="0" width="807" height="208" filterUnits="userSpaceOnUse" color-interpolation-filters="sRGB">
<feFlood flood-opacity="0" result="BackgroundImageFix"/>
<feColorMatrix in="SourceAlpha" type="matrix" values="0 0 0 0 0 0 0 0 0 0 0 0 0 0 0 0 0 0 127 0" result="hardAlpha"/>
<feOffset dy="4"/>
<feGaussianBlur stdDeviation="2"/>
<feComposite in2="hardAlpha" operator="out"/>
<feColorMatrix type="matrix" values="0 0 0 0 0 0 0 0 0 0 0 0 0 0 0 0 0 0 0.25 0"/>
<feBlend mode="normal" in2="BackgroundImageFix" result="effect1_dropShadow_1_84"/>
<feBlend mode="normal" in="SourceGraphic" in2="effect1_dropShadow_1_84" result="shape"/>
</filter>
<clipPath id="clip0_1_84">
<rect width="799" height="200" fill="white"/>
</clipPath>
</defs>
</svg>
