<svg width="723" height="208" viewBox="0 0 723 208" fill="none" xmlns="http://www.w3.org/2000/svg">
<g clip-path="url(#clip0_1_135)" filter="url(#filter0_d_1_135)">
<mask id="mask0_1_135" style="mask-type:luminance" maskUnits="userSpaceOnUse" x="4" y="0" width="716" height="200">
<path d="M720 0H4V200H720V0Z" fill="white"/>
</mask>
<g mask="url(#mask0_1_135)">
<path d="M109.836 169.748C122.75 168.655 135.106 164 145.53 156.3L164.91 179.3C150.102 190.673 132.405 197.673 113.824 199.508C95.2425 201.343 76.5187 197.938 59.7723 189.681C43.0259 181.423 28.9259 168.642 19.0688 152.784C9.21159 136.926 3.99099 118.626 3.99805 99.9541C4.00512 81.2824 9.23956 62.9857 19.1087 47.1355C28.9779 31.2853 43.0876 18.5147 59.8402 10.2697C76.5928 2.02468 95.3192 -1.36539 113.899 0.483293C132.479 2.33198 150.17 9.34558 164.97 20.73L145.58 43.73C135.163 36.0206 122.811 31.3543 109.898 30.2508C96.9861 29.1472 84.021 31.6498 72.447 37.4797C60.8731 43.3096 51.1448 52.238 44.3456 63.2704C37.5463 74.3028 33.9432 87.0061 33.9374 99.9654C33.9317 112.925 37.5235 125.631 44.313 136.67C51.1024 147.708 60.8228 156.645 72.3915 162.485C83.9603 168.326 96.9231 170.84 109.836 169.748Z" fill="white"/>
<path d="M171.79 173.49L152.41 150.49H152.44C159.267 143.97 164.702 136.133 168.415 127.453C172.127 118.773 174.042 109.431 174.042 99.99C174.042 90.5494 172.127 81.2068 168.415 72.5269C164.702 63.8471 159.267 56.0102 152.44 49.49L171.84 26.49C181.987 35.8577 190.084 47.2256 195.621 59.8775C201.157 72.5293 204.013 86.1908 204.008 100.001C204.004 113.811 201.139 127.471 195.594 140.119C190.049 152.767 181.944 164.129 171.79 173.49Z" fill="white"/>
<path d="M570.467 6V166.6H589.607V6H570.467Z" fill="white"/>
<path fill-rule="evenodd" clip-rule="evenodd" d="M665.447 151.42C644.987 151.42 629.367 140.2 625.627 120.4H717.807C718.247 117.54 718.467 114.68 718.467 111.82C718.467 81.02 696.907 53.74 663.687 53.74C629.367 53.74 606.047 79.04 606.047 111.6C606.047 144.6 629.587 169.46 665.007 169.46C687.007 169.46 703.727 159.56 713.407 144.6L697.127 135.36C691.627 144.38 680.627 151.42 665.447 151.42ZM625.627 103.68C628.707 84.54 643.007 71.78 663.687 71.78C680.187 71.78 695.807 81.9 699.107 103.68H625.627Z" fill="white"/>
<path d="M508.669 169.46C475.449 169.46 450.809 144.16 450.809 111.6C450.809 79.04 475.449 53.74 508.669 53.74C530.449 53.74 548.929 65.18 557.289 82.56L541.229 91.8C535.729 80.14 523.409 72.44 508.669 72.44C486.669 72.44 469.949 89.38 469.949 111.6C469.949 133.6 486.669 150.54 508.669 150.54C523.629 150.54 535.729 142.84 541.889 131.4L558.169 140.86C548.929 158.02 530.229 169.46 508.669 169.46Z" fill="white"/>
<path d="M450.857 54.62C436.997 54.62 423.577 59.68 416.537 75.08V56.6H397.397V166.6H416.537V108.3C416.537 82.34 434.357 73.98 450.857 74.64V54.62Z" fill="white"/>
<path d="M365.337 36.58C358.077 36.58 352.357 30.86 352.357 23.82C352.357 16.78 358.077 10.84 365.337 10.84C372.377 10.84 378.097 16.78 378.097 23.82C378.097 30.86 372.377 36.58 365.337 36.58Z" fill="white"/>
<path d="M355.657 166.6V56.6H374.797V166.6H355.657Z" fill="white"/>
<path d="M236 111.6C236 144.16 260.64 169.46 293.86 169.46C315.42 169.46 334.12 158.02 343.36 140.86L327.08 131.4C320.92 142.84 308.82 150.54 293.86 150.54C271.86 150.54 255.14 133.6 255.14 111.6C255.14 89.38 271.86 72.44 293.86 72.44C308.6 72.44 320.92 80.14 326.42 91.8L342.48 82.56C334.12 65.18 315.64 53.74 293.86 53.74C260.64 53.74 236 79.04 236 111.6Z" fill="white"/>
</g>
</g>
<defs>
<filter id="filter0_d_1_135" x="0" y="0" width="724" height="208" filterUnits="userSpaceOnUse" color-interpolation-filters="sRGB">
<feFlood flood-opacity="0" result="BackgroundImageFix"/>
<feColorMatrix in="SourceAlpha" type="matrix" values="0 0 0 0 0 0 0 0 0 0 0 0 0 0 0 0 0 0 127 0" result="hardAlpha"/>
<feOffset dy="4"/>
<feGaussianBlur stdDeviation="2"/>
<feComposite in2="hardAlpha" operator="out"/>
<feColorMatrix type="matrix" values="0 0 0 0 0 0 0 0 0 0 0 0 0 0 0 0 0 0 0.25 0"/>
<feBlend mode="normal" in2="BackgroundImageFix" result="effect1_dropShadow_1_135"/>
<feBlend mode="normal" in="SourceGraphic" in2="effect1_dropShadow_1_135" result="shape"/>
</filter>
<clipPath id="clip0_1_135">
<rect width="716" height="200" fill="white" transform="translate(4)"/>
</clipPath>
</defs>
</svg>
