<svg width="902" height="208" viewBox="0 0 902 208" fill="none" xmlns="http://www.w3.org/2000/svg">
<g clip-path="url(#clip0_1_73)" filter="url(#filter0_d_1_73)">
<mask id="mask0_1_73" style="mask-type:luminance" maskUnits="userSpaceOnUse" x="4" y="0" width="895" height="200">
<path d="M899 0H4V200H899V0Z" fill="white"/>
</mask>
<g mask="url(#mask0_1_73)">
<path d="M84.6434 199.5H69.3568V-0.5L84.6434 12.2389V199.5Z" fill="white"/>
<path d="M36.2358 199.5H51.5224V38.2646L36.2358 51.0034V199.5Z" fill="white"/>
<path d="M19.6753 199.5H4.38867V89.22L19.6753 76.4811V199.5Z" fill="white"/>
<path d="M149.612 199.5H134.325V76.4811L149.612 89.22V199.5Z" fill="white"/>
<path d="M102.478 199.5H117.764V51.0034L102.478 38.2646V199.5Z" fill="white"/>
<path fill-rule="evenodd" clip-rule="evenodd" d="M315.937 143.134V136.258H298.94V142.829C298.94 157.497 303.687 170.6 324.138 170.6C344.59 170.6 350.034 155.817 350.034 140.04C350.034 121.322 345.009 114.179 328.605 101.84C318.973 94.6966 317.507 90.38 317.507 83.0074C317.507 75.6348 318.799 70.7834 324.487 70.7834C330.176 70.7834 331.467 75.5966 331.467 83.2366V88.6992H348.219V82.74C348.219 70.6688 344.66 56 324.871 56C305.083 56 300.72 70.7834 300.72 85.414C300.72 101.878 307.037 107.99 318.799 117.387C330.56 126.785 333.108 130.49 333.108 142.447C333.108 149.666 331.223 156.008 324.801 156.008C318.38 156.008 315.937 151.385 315.937 143.134ZM217.136 168.995L220.94 139.275H237.867L242.194 168.995H259.854L241.531 57.7946H217.659L200 168.995H217.136ZM229.665 74.1059C230.921 86.6737 233.295 104.59 235.807 123.499H223.174C223.512 120.933 223.878 118.188 224.256 115.347L224.257 115.344C226.304 99.9938 228.724 81.8417 229.107 74.1059H229.665ZM444.299 168.995H431.107C430.627 166.246 430.324 163.463 430.199 160.667C427.163 168.078 420.776 170.638 413.726 170.638C397.602 170.638 392.402 158.796 392.402 140.078V87.7054C392.402 69.5604 399.382 56.1904 418.403 56.1904C441.402 56.1904 443.845 73.3423 443.845 85.2989V88.8897H426.849V84.4585C426.849 78.5757 426.011 71.8143 418.298 71.8143C412.121 71.8143 409.503 76.1308 409.503 85.0314V141.911C409.503 150.812 412.051 155.434 418.159 155.434C425.488 155.434 427.268 149.246 427.268 137.786V121.551H417.775V106.805H444.299V168.995ZM503.283 168.995L507.122 139.275H523.909L528.236 168.995H545.826L527.503 57.7944H503.632L486.182 168.995H503.283ZM515.847 74.1058C517.103 86.6736 519.476 104.589 521.989 123.498H509.216C509.554 120.932 509.92 118.186 510.299 115.344V115.341L510.3 115.339C512.346 99.9895 514.766 81.8406 515.149 74.1058H515.847ZM603.618 119.296V168.956H586.727V57.7944H610.11C626.792 57.7944 636.634 64.594 636.634 84.5344V88.7746C636.634 105.85 629.654 110.205 625.5 111.962C631.887 115.018 635.517 119.602 635.517 134.882C635.238 146.277 635.576 157.681 636.529 169.033H620.196C618.96 163.261 619.026 148.831 619.067 139.809C619.073 138.382 619.079 137.091 619.079 135.99C619.079 122.429 617.334 119.335 607.527 119.335L603.618 119.296ZM603.618 105.124H607.492C616.426 105.124 619.707 101.686 619.707 89.615V85.795C619.707 77.2 617.962 71.9666 608.399 71.9666H603.618V105.124ZM705.424 57.7944H682.006V168.995H705.424C731.459 168.995 734.321 150.315 734.321 133.316V90.6846C734.321 70.0184 728.667 57.7944 705.424 57.7944ZM704.482 154.402H699.072V72.5396H704.377C715.545 72.5396 717.29 79.11 717.29 89.3094V135.646C717.29 147.144 715.615 154.402 704.482 154.402ZM796.79 57.7944V168.995H779.898V57.7944H796.79ZM855.352 168.995L859.191 139.275H876.048L880.341 168.995H898L879.678 57.7944H855.806L838.146 168.995H855.352ZM873.142 116.784C873.434 119.003 873.728 121.244 874.024 123.498H861.32C861.531 121.927 861.751 120.288 861.978 118.601C864.121 102.653 866.843 82.3967 867.253 74.1058H867.881C868.988 85.175 870.988 100.393 873.142 116.784Z" fill="white"/>
</g>
</g>
<defs>
<filter id="filter0_d_1_73" x="0" y="0" width="903" height="208" filterUnits="userSpaceOnUse" color-interpolation-filters="sRGB">
<feFlood flood-opacity="0" result="BackgroundImageFix"/>
<feColorMatrix in="SourceAlpha" type="matrix" values="0 0 0 0 0 0 0 0 0 0 0 0 0 0 0 0 0 0 127 0" result="hardAlpha"/>
<feOffset dy="4"/>
<feGaussianBlur stdDeviation="2"/>
<feComposite in2="hardAlpha" operator="out"/>
<feColorMatrix type="matrix" values="0 0 0 0 0 0 0 0 0 0 0 0 0 0 0 0 0 0 0.25 0"/>
<feBlend mode="normal" in2="BackgroundImageFix" result="effect1_dropShadow_1_73"/>
<feBlend mode="normal" in="SourceGraphic" in2="effect1_dropShadow_1_73" result="shape"/>
</filter>
<clipPath id="clip0_1_73">
<rect width="895" height="200" fill="white" transform="translate(4)"/>
</clipPath>
</defs>
</svg>
