<svg width="864" height="208" viewBox="0 0 864 208" fill="none" xmlns="http://www.w3.org/2000/svg">
<g filter="url(#filter0_d_1_100)">
<path d="M103 63.58L4.5 0V102.74H201.5V0L103 63.58Z" fill="white"/>
<path d="M103 200L201.5 102.74L103 63.58L4.5 102.74L103 200Z" fill="white"/>
<path d="M81.3896 178.66L103 200L124.61 178.66L103 157.18L81.3896 178.66Z" fill="white"/>
<path d="M4.5 102.74L103 63.58L201.5 102.74L103 157.18L4.5 102.74Z" fill="white"/>
<path d="M239.526 153.951V49.8046H300.044L297.627 65.9177H261.651V95.4172H292.948V111.499H261.651V153.951H239.526Z" fill="white"/>
<path d="M391.362 53.8019C398.448 58.2322 404.015 64.718 407.32 72.394C414.781 91.3098 414.781 112.353 407.32 131.269C403.989 138.928 398.428 145.407 391.362 149.861C383.888 154.348 375.287 156.606 366.572 156.368C357.876 156.593 349.29 154.382 341.783 149.985C334.67 145.56 329.071 139.076 325.732 131.393C321.778 122.072 319.855 112.016 320.092 101.894C319.835 91.89 321.759 81.9505 325.732 72.7659C329.101 65.0175 334.713 58.4556 341.845 53.9259C349.288 49.4166 357.873 47.1468 366.572 47.3877C375.276 47.1356 383.873 49.3599 391.362 53.8019ZM349.468 72.9828C345.605 78.9942 343.673 88.6312 343.673 101.894C343.673 115.156 345.625 124.782 349.53 130.773C351.32 133.651 353.839 136.003 356.833 137.592C359.826 139.181 363.186 139.95 366.572 139.821C369.972 139.995 373.357 139.257 376.375 137.682C379.394 136.107 381.936 133.754 383.739 130.866C387.561 124.875 389.461 115.218 389.441 101.894C389.42 88.5692 387.519 78.9013 383.739 72.8898C381.936 70.0019 379.394 67.6487 376.375 66.0741C373.357 64.4995 369.972 63.7608 366.572 63.9346C363.154 63.7657 359.753 64.5159 356.723 66.1072C353.693 67.6985 351.145 70.0727 349.344 72.9828H349.468Z" fill="white"/>
<path d="M486.988 97.8032L517.386 153.951H492.999L473.602 112.708L454.483 153.951H430.84L460.494 98.5779L433.257 49.8046H457.489L473.881 84.5718L491.047 49.8046H514.535L486.988 97.8032Z" fill="white"/>
<path d="M623.111 153.951V103.691H573.718V154.106H564.701V51.0132H573.718V96.0061H623.111V51.0132H632.129V154.106L623.111 153.951Z" fill="white"/>
<path d="M746.966 121.756C747.398 130.781 744.272 139.616 738.259 146.36C732.433 152.557 724.046 155.656 713.097 155.656C702.149 155.656 693.751 152.557 687.905 146.36C681.845 139.571 678.724 130.656 679.229 121.57V51.0132H688.277V121.136C688.277 129.782 690.291 136.413 694.474 141.03C698.657 145.647 704.762 147.94 713.066 147.94C721.371 147.94 727.723 145.616 731.658 140.937C735.99 135.28 738.125 128.246 737.67 121.136V51.0132H746.966V121.756Z" fill="white"/>
<path d="M852.633 106.789C857.053 110.921 859.264 117.118 859.264 125.382C859.264 135.008 856 142.187 849.472 146.917C842.944 151.648 833.865 154.003 822.235 153.982H794.191V51.0132H817.215C829.145 51.0132 838.348 53.1513 844.824 57.4894C847.983 59.5701 850.543 62.4406 852.249 65.8161C853.956 69.1917 854.751 72.9549 854.554 76.7323C854.841 82.3693 852.981 87.9057 849.348 92.2257C845.757 96.207 840.893 98.8144 835.59 99.6005C841.903 100.075 847.887 102.599 852.633 106.789ZM803.054 58.419V96.192H823.815C829.424 96.4651 834.938 94.6676 839.308 91.1411C841.269 89.4129 842.815 87.2639 843.829 84.8548C844.843 82.4456 845.299 79.8385 845.165 77.2281C845.413 74.4294 844.909 71.6152 843.705 69.0765C842.501 66.5379 840.641 64.367 838.317 62.7882C833.751 59.8754 826.955 58.419 817.927 58.419H803.054ZM849.968 125.382C850.202 122.28 849.704 119.167 848.514 116.293C847.325 113.418 845.477 110.864 843.12 108.835C837.866 105.002 831.456 103.088 824.961 103.412H803.271V146.453H822.389C840.775 146.432 849.968 139.408 849.968 125.382Z" fill="white"/>
</g>
<defs>
<filter id="filter0_d_1_100" x="-1" y="0" width="865" height="208" filterUnits="userSpaceOnUse" color-interpolation-filters="sRGB">
<feFlood flood-opacity="0" result="BackgroundImageFix"/>
<feColorMatrix in="SourceAlpha" type="matrix" values="0 0 0 0 0 0 0 0 0 0 0 0 0 0 0 0 0 0 127 0" result="hardAlpha"/>
<feOffset dy="4"/>
<feGaussianBlur stdDeviation="2"/>
<feComposite in2="hardAlpha" operator="out"/>
<feColorMatrix type="matrix" values="0 0 0 0 0 0 0 0 0 0 0 0 0 0 0 0 0 0 0.25 0"/>
<feBlend mode="normal" in2="BackgroundImageFix" result="effect1_dropShadow_1_100"/>
<feBlend mode="normal" in="SourceGraphic" in2="effect1_dropShadow_1_100" result="shape"/>
</filter>
</defs>
</svg>
