<svg width="402" height="119" viewBox="0 0 402 119" fill="none" xmlns="http://www.w3.org/2000/svg">
<path d="M119 72L47 72L47 -6.29444e-06V-6.29444e-06C86.7645 -2.81812e-06 119 32.2355 119 72V72Z" fill="#636465"/>
<path d="M94 72C94 97.9574 72.9574 119 47 119V119C21.0426 119 1.8396e-06 97.9574 4.10887e-06 72L8.21774e-06 25L47 25C72.9574 25 94 46.0426 94 72V72Z" fill="white"/>
<path d="M390.613 93.1V25.9H401.653V93.1H390.613Z" fill="white"/>
<path d="M318.964 93.1L346.612 25.9H354.292L381.748 93.1H369.844L348.34 38.668H352.372L330.676 93.1H318.964ZM332.596 80.14V70.54H368.212V80.14H332.596Z" fill="white"/>
<path d="M286.125 94.06C281.965 94.06 278.189 93.004 274.797 90.892C271.469 88.78 268.813 85.932 266.829 82.348C264.909 78.7 263.949 74.636 263.949 70.156C263.949 65.612 264.909 61.548 266.829 57.964C268.813 54.316 271.469 51.436 274.797 49.324C278.189 47.148 281.965 46.06 286.125 46.06C289.645 46.06 292.749 46.828 295.437 48.364C298.189 49.836 300.365 51.884 301.965 54.508C303.565 57.132 304.365 60.108 304.365 63.436V76.684C304.365 80.012 303.565 82.988 301.965 85.612C300.429 88.236 298.285 90.316 295.533 91.852C292.781 93.324 289.645 94.06 286.125 94.06ZM287.853 84.076C291.757 84.076 294.893 82.764 297.261 80.14C299.693 77.516 300.909 74.156 300.909 70.06C300.909 67.308 300.365 64.876 299.277 62.764C298.189 60.652 296.653 59.02 294.669 57.868C292.749 56.652 290.477 56.044 287.853 56.044C285.293 56.044 283.021 56.652 281.037 57.868C279.117 59.02 277.581 60.652 276.429 62.764C275.341 64.876 274.797 67.308 274.797 70.06C274.797 72.812 275.341 75.244 276.429 77.356C277.581 79.468 279.117 81.132 281.037 82.348C283.021 83.5 285.293 84.076 287.853 84.076ZM300.237 93.1V80.716L302.061 69.484L300.237 58.348V47.02H310.797V93.1H300.237Z" fill="white"/>
<path d="M230.437 94.06C226.277 94.06 222.501 93.004 219.109 90.892C215.781 88.78 213.125 85.932 211.141 82.348C209.221 78.7 208.261 74.636 208.261 70.156C208.261 65.612 209.221 61.548 211.141 57.964C213.125 54.316 215.781 51.436 219.109 49.324C222.501 47.148 226.277 46.06 230.437 46.06C233.957 46.06 237.061 46.828 239.749 48.364C242.501 49.836 244.677 51.884 246.277 54.508C247.877 57.132 248.677 60.108 248.677 63.436V76.684C248.677 80.012 247.877 82.988 246.277 85.612C244.741 88.236 242.597 90.316 239.845 91.852C237.093 93.324 233.957 94.06 230.437 94.06ZM232.165 84.076C236.069 84.076 239.205 82.764 241.573 80.14C244.005 77.516 245.221 74.156 245.221 70.06C245.221 67.308 244.677 64.876 243.589 62.764C242.501 60.652 240.965 59.02 238.981 57.868C237.061 56.652 234.789 56.044 232.165 56.044C229.605 56.044 227.333 56.652 225.349 57.868C223.429 59.02 221.893 60.652 220.741 62.764C219.653 64.876 219.109 67.308 219.109 70.06C219.109 72.812 219.653 75.244 220.741 77.356C221.893 79.468 223.429 81.132 225.349 82.348C227.333 83.5 229.605 84.076 232.165 84.076ZM244.549 93.1V80.716L246.373 69.484L244.549 58.348V47.02H255.109V93.1H244.549Z" fill="white"/>
<path d="M178.52 94.06C173.208 94.06 168.696 93.1 164.984 91.18C161.272 89.26 157.944 86.444 155 82.732L162.488 75.244C164.344 77.932 166.552 80.044 169.112 81.58C171.672 83.052 174.936 83.788 178.904 83.788C182.616 83.788 185.56 83.02 187.736 81.484C189.976 79.948 191.096 77.836 191.096 75.148C191.096 72.908 190.52 71.084 189.368 69.676C188.216 68.268 186.68 67.116 184.76 66.22C182.904 65.26 180.824 64.428 178.52 63.724C176.28 62.956 174.008 62.124 171.704 61.228C169.464 60.268 167.384 59.084 165.464 57.676C163.608 56.268 162.104 54.444 160.952 52.204C159.8 49.964 159.224 47.116 159.224 43.66C159.224 39.692 160.184 36.332 162.104 33.58C164.088 30.764 166.744 28.62 170.072 27.148C173.4 25.676 177.112 24.94 181.208 24.94C185.624 24.94 189.56 25.804 193.016 27.532C196.536 29.26 199.384 31.468 201.56 34.156L194.072 41.644C192.152 39.468 190.136 37.868 188.024 36.844C185.976 35.756 183.608 35.212 180.92 35.212C177.592 35.212 174.968 35.884 173.048 37.228C171.192 38.572 170.264 40.46 170.264 42.892C170.264 44.94 170.84 46.604 171.992 47.884C173.144 49.1 174.648 50.156 176.504 51.052C178.424 51.884 180.504 52.684 182.744 53.452C185.048 54.22 187.32 55.084 189.56 56.044C191.864 57.004 193.944 58.252 195.8 59.788C197.72 61.26 199.256 63.18 200.408 65.548C201.56 67.916 202.136 70.892 202.136 74.476C202.136 80.492 199.992 85.26 195.704 88.78C191.48 92.3 185.752 94.06 178.52 94.06Z" fill="white"/>
</svg>
