<svg width="32" height="32" viewBox="0 0 32 32" fill="none" xmlns="http://www.w3.org/2000/svg">
<g clip-path="url(#clip0_13_18)">
<path d="M23.8888 14.1112C26.8888 11.1112 27.0763 7.54244 26.9825 5.95119C26.9669 5.70867 26.8635 5.48012 26.6917 5.30827C26.5198 5.13643 26.2913 5.03304 26.0487 5.01744C24.4575 4.92369 20.8913 5.10869 17.8888 8.11119L10 15.9999L16 21.9999L23.8888 14.1112Z" stroke="#F6F6F7" stroke-width="3" stroke-linecap="round" stroke-linejoin="round"/>
<path d="M17 9H9.2937C9.02884 9.00012 8.77485 9.10532 8.58745 9.2925L4.2937 13.5863C4.16261 13.7176 4.07066 13.8829 4.02816 14.0636C3.98566 14.2442 3.99427 14.4332 4.05304 14.6092C4.11181 14.7853 4.21842 14.9415 4.36093 15.0604C4.50344 15.1793 4.67623 15.2562 4.85996 15.2825L9.99996 16" stroke="#F6F6F7" stroke-width="3" stroke-linecap="round" stroke-linejoin="round"/>
<path d="M23 15V22.7062C22.9999 22.9711 22.8947 23.2251 22.7075 23.4125L18.4137 27.7062C18.2824 27.8373 18.1171 27.9293 17.9364 27.9718C17.7558 28.0143 17.5668 28.0057 17.3908 27.9469C17.2147 27.8881 17.0585 27.7815 16.9396 27.639C16.8207 27.4965 16.7438 27.3237 16.7175 27.14L16 22" stroke="#F6F6F7" stroke-width="3" stroke-linecap="round" stroke-linejoin="round"/>
<path d="M11.295 24.3662C10.4438 25.525 8.64375 27 5 27C5 23.3562 6.475 21.5562 7.63375 20.705" stroke="#F6F6F7" stroke-width="3" stroke-linecap="round" stroke-linejoin="round"/>
</g>
<defs>
<clipPath id="clip0_13_18">
<rect width="32" height="32" fill="white"/>
</clipPath>
</defs>
</svg>
